<?xml version="1.0" standalone="no"?>
<!DOCTYPE svg PUBLIC "-//W3C//DTD SVG 1.1//EN" "http://www.w3.org/Graphics/SVG/1.1/DTD/svg11.dtd" >
<svg xmlns="http://www.w3.org/2000/svg">
<metadata></metadata>
<defs>
<font id="technicznapomocroundregular" horiz-adv-x="1139" >
<font-face units-per-em="2048" ascent="1638" descent="-410" />
<missing-glyph horiz-adv-x="799" />
<glyph horiz-adv-x="0" />
<glyph unicode="&#xd;" horiz-adv-x="569" />
<glyph unicode=" "  horiz-adv-x="799" />
<glyph unicode="&#x09;" horiz-adv-x="799" />
<glyph unicode="&#xa0;" horiz-adv-x="799" />
<glyph unicode="!" horiz-adv-x="500" d="M0 115q0 30 15.5 57.5t43 42.5t56.5 15t56.5 -15t43 -42.5t15.5 -57.5t-15 -57.5t-42.5 -42.5t-57.5 -15t-57.5 15t-42.5 42.5t-15 57.5zM15 500v1200q0 100 100 100t100 -100v-1200q0 -100 -100 -100t-100 100z" />
<glyph unicode="&#x22;" horiz-adv-x="999" d="M7 1436l88 287q29 95 125 66q95 -29 66 -125l-88 -287q-29 -95 -125 -66q-95 29 -66 125zM420 1436l88 287q30 95 125 66q96 -29 67 -125l-88 -287q-30 -95 -125 -66q-96 29 -67 125z" />
<glyph unicode="#" horiz-adv-x="1500" d="M0 600q0 100 100 100h100v400h-100q-100 0 -100 100t100 100h100v200q0 100 100 100t100 -100v-200h400v200q0 100 100 100t100 -100v-200h100q100 0 100 -100t-100 -100h-100v-400h100q100 0 100 -100t-100 -100h-100v-200q0 -100 -100 -100t-100 100v200h-400v-200 q0 -100 -100 -100t-100 100v200h-100q-100 0 -100 100zM400 700h400v400h-400v-400z" />
<glyph unicode="$" horiz-adv-x="2602" d="M0 209v1380h617q7 -1 16 -4l109 -83l10 -10l12 -8l10 -8l284 -217l2 18l-2 312h629l2 -1v-477q-1 0 -2 -2l-8 -12l-14 -26l-16 -21l-8 -13l-3 -16q-3 -6 -5 -13l-11 -29l-16 -23l-8 -8q-4 -6 -7 -13l-24 -35l-4 -16l-8 -11q-4 -5 -8 -11l-10 -28l-10 -10q-3 -7 -11 -8 q-6 0 -14 5l-10 9l-8 11l-4 17l-10 85q-1 8 -3 16l-6 70l-3 16l-8 13q-6 4 -12 6l-35 4l-35 -4l-15 -3l-22 -16l-3 -18v-37l3 -18q0 -8 2 -18l3 -15l53 -159q4 -6 5 -14l6 -34l9 -28q0 -8 3 -16q4 -6 7 -14q2 -7 3 -16l3 -16l5 -14l3 -16l7 -12q3 -6 8 -12l11 -27 q3 -6 7 -13q1 -6 6 -12l20 -18l16 -5q6 -3 16 -3h19q6 4 13 7l11 9q5 3 10 8l7 12q5 5 8 12l11 26l1 16v42q0 7 3 17l9 30q0 7 4 15l6 12l4 15l8 12l27 50q4 5 9 11l8 11q2 3 7 7v-613h-627q1 6 1 12l-185 257l-8 12l-233 323v-604h-637zM3 -3v132h25q10 -1 13 -10 q5 -7 10 -16l10 -15q3 -6 8 -15l9 -15l3 18v53h34v-130l-24 -2q-10 2 -16 7l-9 16q-4 7 -9 16l-9 15q-3 7 -9 14l-3 -15v-53h-33zM134 54v16l1 14l5 13l5 9l7 9l10 8l10 5l13 2h17l24 -6l9 -7q4 -4 8 -9l6 -10l3 -11l3 -15v-16l-5 -27l-6 -11l-7 -8l-10 -7l-9 -4l-15 -4h-16 l-14 4q-6 1 -11 4l-10 6l-7 9l-10 22zM171 57l1 -14q2 -4 5 -9l9 -7l13 -1l10 5l6 10l4 13v14l-3 14q-2 6 -5 11l-9 5l-13 2q-5 -2 -11 -6q-2 -5 -5 -10l-2 -13v-14zM257 129h34l13 -70l3 5l12 54q2 6 6 11l32 -1l15 -66l4 4l11 56q1 7 8 7h27l-25 -129q-7 -1 -14 -3h-16 q-6 2 -9 7l-16 66q-2 5 -2 7l-21 -77l-15 -3h-15q-6 3 -7 9zM422 -3l42 132h35q7 -1 9 -10l38 -118q-4 -3 -11 -4h-18q-7 2 -8 7l-5 14h-34q-8 -2 -9 -9l-5 -12h-34zM472 51q7 -3 14 -4h11l-14 47zM561 -3v132h36v-48l27 34q5 8 13 14h45l-3 -4l-11 -11q-4 -8 -12 -14 l-15 -23l42 -80h-37q-9 3 -12 12l-8 18q-3 7 -7 16l-3 5l-19 -21v-30h-36zM663 226v482l91 -114q2 -6 5 -13v-299q-3 -5 -8 -10l-86 -62zM674 1573l169 -24l173 -137q5 -5 10 -11l5 -92l-201 148l-10 10zM742 98v31h106q3 -5 4 -11v-16q-4 -5 -11 -5h-24q-1 -1 -2 -3v-97 h-24q-6 1 -12 3v90q-1 6 -9 7h-14q-6 0 -14 1zM779 884l1 -2l1 -14l5 -10l6 -9l6 -8l22 -9q5 -2 12 -4l14 -1l13 2l11 4q5 2 8 7l10 20l6 9l16 15l13 17l15 16l40 23l7 6q4 2 7 7q4 4 9 8l19 10l44 32l11 6q3 2 8 7l9 6h24l2 -4l9 -37l5 -147l3 -12q1 -6 3 -12l-7 -132 q0 -6 -2 -12l2 -30l-5 -24l-5 -10l-2 -13l4 -42l7 -22l2 -14l9 -22q0 -6 2 -13v-15l7 -68l4 -11l8 -9l10 -5l27 -3l11 -3l14 -3h13l25 6l9 6q3 5 10 7q4 3 7 7l7 39l4 12l1 13l-21 99q-3 5 -4 13l-2 14l-2 9l2 10l-2 5l-1 29l5 40v182l-4 26l-6 192l5 40l6 9l9 7l23 8l10 5 l8 7l21 9q5 1 11 5l10 6q3 3 8 6l29 18l11 2l9 7l9 5l13 4l9 5l22 25l5 10l3 11l3 13l-4 12l-7 9l-6 8l-6 8l-10 6l-12 3h-30l-30 -17l-8 -7q-4 -1 -9 -5l-10 -5l-15 -17l-17 -12l-10 -5l-9 -6l-13 -4l-28 -16l-14 -1l-21 -10l-13 -3q-7 1 -12 3l-36 10l-15 1q-6 -1 -13 -3 l-8 -6l-11 -5q-5 -1 -8 -6l-9 -7l-6 -25v-3v-8q0 -6 3 -12l3 -4l-4 -21l-5 -11l-27 -19l-11 -5q-4 -2 -8 -6q-4 -3 -9 -6l-24 -8l-28 -16l-11 -6q-4 -2 -9 -6l-9 -6l-30 -15l-15 -15l-20 -11l-10 -5l-15 -15l-48 -14l-10 -5l-14 -14l-8 -10l-5 -9l-5 -25zM867 0v129h97v-29 h-60v-18h55l1 -28h-55l-1 -3v-22l10 -1h44l8 -1v-30h-96zM985 -3v132h36v-100h57v-32h-93zM1093 0v129h96v-29h-60v-18h55l1 -28h-55l-1 -3v-22l10 -1h44l9 -1v-30h-96q-2 1 -3 3zM1199 129h38l2 -5l23 -87l5 10l19 70q0 8 10 12h30l-27 -78q-1 -8 -5 -17l-11 -37h-40z M1340 -3v132h36v-132h-36zM1394 38q0 2 3 3l25 1q9 -1 9 -13q7 -7 18 -9q8 2 14 9q0 11 -8 17q-8 4 -19 7l-19 7q-6 5 -13 12q-4 10 -5 22q1 8 6 18q5 7 14 12q7 5 17 6h18h8q8 -2 18 -7q6 -6 11 -15q3 -7 5 -16h-6l-24 -3q-6 5 -11 14l-7 3l-12 -3l-5 -9q3 -3 7 -6l40 -12 q6 -5 13 -12q5 -7 8 -18l1 -12l-3 -6v-4q-3 -8 -10 -16q-6 -5 -15 -8q-10 -5 -22 -5h-14l-7 2l-3 2q-9 1 -17 7q-5 7 -10 15zM1520 -3v132h37v-132h-37zM1576 54v16l2 14l4 13l6 9l7 9l9 8l12 5l11 2h17l25 -6l8 -7q4 -4 7 -9l6 -10l5 -11l1 -15v-16l-4 -27l-5 -11l-8 -8 l-8 -7l-12 -4l-12 -4h-18l-13 4q-6 1 -12 4l-9 6l-7 9l-10 22zM1612 57l4 -14q0 -4 4 -9l8 -7l13 -1l12 5l5 10l2 13v14l-2 14q-1 6 -5 11l-7 5l-14 2q-6 -2 -11 -6q-3 -5 -5 -10l-4 -13v-14zM1716 209v655l1 3l9 28l17 21q5 5 7 13l11 27q2 8 5 15l27 50l10 8l14 24l9 11 l11 7l14 25l8 10l22 35l10 11l12 7q6 3 11 7l8 11l10 11l37 19l15 6l40 35l17 42q2 7 3 15v38l-5 14l-7 13l-16 21l-12 7q-8 2 -16 3h-19l-15 -1q-9 -1 -17 -4l-14 -5l-21 -16l-28 -30l-23 -34l-42 -35l-49 -66l-21 -35l-18 -21l-5 -10v445l14 -6l10 -9l69 -45l2 -209l9 7 l14 22q5 6 11 10q4 5 10 9l24 33l47 30l13 6l17 3h18l34 -7l13 -6l22 -15l9 -11l16 -22l6 -14q2 -6 3 -16v-57l-13 -43l-23 -35q-4 -5 -10 -9l-47 -30q-7 -2 -14 -5l-12 -6l-13 -6l-8 -11q-5 -5 -9 -11l-13 -6q-4 -5 -10 -10q-2 -5 -7 -11l-50 -66q-3 -5 -6 -11l-26 -32 q-3 -6 -5 -15v-703l-2 -2l-66 -50l-9 -9l-12 -7zM1718 -3v132h25q9 -1 14 -10q4 -7 9 -16l9 -15l10 -15l8 -15l2 18v53h34v-130l-24 -2q-8 2 -15 7l-9 16q-4 7 -8 16l-10 15q-3 7 -10 14l-2 -15v-53h-33z" />
<glyph unicode="%" horiz-adv-x="1797" d="M0 1439q0 152 103.5 255.5t255.5 103.5q153 0 256.5 -103.5t103.5 -255.5q0 -153 -103.5 -256.5t-256.5 -103.5q-152 0 -255.5 103.5t-103.5 256.5zM79 280l1154 1450q62 78 141 16q78 -62 16 -140l-1154 -1450q-62 -78 -141 -16q-78 62 -16 140zM180 1439q0 -74 53 -127 t126 -53q75 0 127.5 52.5t52.5 127.5q0 76 -51.5 127.5t-128.5 51.5q-75 0 -127 -52t-52 -127zM810 491q0 152 103.5 255.5t255.5 103.5q153 0 256.5 -103.5t103.5 -255.5q0 -153 -103.5 -256.5t-256.5 -103.5q-152 0 -255.5 103.5t-103.5 256.5zM990 491q0 -74 53 -127 t126 -53q75 0 127.5 52.5t52.5 127.5q0 76 -51.5 127.5t-128.5 51.5q-75 0 -127 -52.5t-52 -126.5z" />
<glyph unicode="&#x26;" horiz-adv-x="2602" d="M0 209v1380h617q7 -1 16 -4l109 -83l10 -10l12 -8l10 -8l284 -217l2 18l-2 312h629l2 -1v-477q-1 0 -2 -2l-8 -12l-14 -26l-16 -21l-8 -13l-3 -16q-3 -6 -5 -13l-11 -29l-16 -23l-8 -8q-4 -6 -7 -13l-24 -35l-4 -16l-8 -11q-4 -5 -8 -11l-10 -28l-10 -10q-3 -7 -11 -8 q-6 0 -14 5l-10 9l-8 11l-4 17l-10 85q-1 8 -3 16l-6 70l-3 16l-8 13q-6 4 -12 6l-35 4l-35 -4l-15 -3l-22 -16l-3 -18v-37l3 -18q0 -8 2 -18l3 -15l53 -159q4 -6 5 -14l6 -34l9 -28q0 -8 3 -16q4 -6 7 -14q2 -7 3 -16l3 -16l5 -14l3 -16l7 -12q3 -6 8 -12l11 -27 q3 -6 7 -13q1 -6 6 -12l20 -18l16 -5q6 -3 16 -3h19q6 4 13 7l11 9q5 3 10 8l7 12q5 5 8 12l11 26l1 16v42q0 7 3 17l9 30q0 7 4 15l6 12l4 15l8 12l27 50q4 5 9 11l8 11q2 3 7 7v-613h-627q1 6 1 12l-185 257l-8 12l-233 323v-604h-637zM3 -3v132h25q10 -1 13 -10 q5 -7 10 -16l10 -15q3 -6 8 -15l9 -15l3 18v53h34v-130l-24 -2q-10 2 -16 7l-9 16q-4 7 -9 16l-9 15q-3 7 -9 14l-3 -15v-53h-33zM134 54v16l1 14l5 13l5 9l7 9l10 8l10 5l13 2h17l24 -6l9 -7q4 -4 8 -9l6 -10l3 -11l3 -15v-16l-5 -27l-6 -11l-7 -8l-10 -7l-9 -4l-15 -4h-16 l-14 4q-6 1 -11 4l-10 6l-7 9l-10 22zM171 57l1 -14q2 -4 5 -9l9 -7l13 -1l10 5l6 10l4 13v14l-3 14q-2 6 -5 11l-9 5l-13 2q-5 -2 -11 -6q-2 -5 -5 -10l-2 -13v-14zM257 129h34l13 -70l3 5l12 54q2 6 6 11l32 -1l15 -66l4 4l11 56q1 7 8 7h27l-25 -129q-7 -1 -14 -3h-16 q-6 2 -9 7l-16 66q-2 5 -2 7l-21 -77l-15 -3h-15q-6 3 -7 9zM422 -3l42 132h35q7 -1 9 -10l38 -118q-4 -3 -11 -4h-18q-7 2 -8 7l-5 14h-34q-8 -2 -9 -9l-5 -12h-34zM472 51q7 -3 14 -4h11l-14 47zM561 -3v132h36v-48l27 34q5 8 13 14h45l-3 -4l-11 -11q-4 -8 -12 -14 l-15 -23l42 -80h-37q-9 3 -12 12l-8 18q-3 7 -7 16l-3 5l-19 -21v-30h-36zM663 226v482l91 -114q2 -6 5 -13v-299q-3 -5 -8 -10l-86 -62zM674 1573l169 -24l173 -137q5 -5 10 -11l5 -92l-201 148l-10 10zM742 98v31h106q3 -5 4 -11v-16q-4 -5 -11 -5h-24q-1 -1 -2 -3v-97 h-24q-6 1 -12 3v90q-1 6 -9 7h-14q-6 0 -14 1zM779 884l1 -2l1 -14l5 -10l6 -9l6 -8l22 -9q5 -2 12 -4l14 -1l13 2l11 4q5 2 8 7l10 20l6 9l16 15l13 17l15 16l40 23l7 6q4 2 7 7q4 4 9 8l19 10l44 32l11 6q3 2 8 7l9 6h24l2 -4l9 -37l5 -147l3 -12q1 -6 3 -12l-7 -132 q0 -6 -2 -12l2 -30l-5 -24l-5 -10l-2 -13l4 -42l7 -22l2 -14l9 -22q0 -6 2 -13v-15l7 -68l4 -11l8 -9l10 -5l27 -3l11 -3l14 -3h13l25 6l9 6q3 5 10 7q4 3 7 7l7 39l4 12l1 13l-21 99q-3 5 -4 13l-2 14l-2 9l2 10l-2 5l-1 29l5 40v182l-4 26l-6 192l5 40l6 9l9 7l23 8l10 5 l8 7l21 9q5 1 11 5l10 6q3 3 8 6l29 18l11 2l9 7l9 5l13 4l9 5l22 25l5 10l3 11l3 13l-4 12l-7 9l-6 8l-6 8l-10 6l-12 3h-30l-30 -17l-8 -7q-4 -1 -9 -5l-10 -5l-15 -17l-17 -12l-10 -5l-9 -6l-13 -4l-28 -16l-14 -1l-21 -10l-13 -3q-7 1 -12 3l-36 10l-15 1q-6 -1 -13 -3 l-8 -6l-11 -5q-5 -1 -8 -6l-9 -7l-6 -25v-3v-8q0 -6 3 -12l3 -4l-4 -21l-5 -11l-27 -19l-11 -5q-4 -2 -8 -6q-4 -3 -9 -6l-24 -8l-28 -16l-11 -6q-4 -2 -9 -6l-9 -6l-30 -15l-15 -15l-20 -11l-10 -5l-15 -15l-48 -14l-10 -5l-14 -14l-8 -10l-5 -9l-5 -25zM867 0v129h97v-29 h-60v-18h55l1 -28h-55l-1 -3v-22l10 -1h44l8 -1v-30h-96zM985 -3v132h36v-100h57v-32h-93zM1093 0v129h96v-29h-60v-18h55l1 -28h-55l-1 -3v-22l10 -1h44l9 -1v-30h-96q-2 1 -3 3zM1199 129h38l2 -5l23 -87l5 10l19 70q0 8 10 12h30l-27 -78q-1 -8 -5 -17l-11 -37h-40z M1340 -3v132h36v-132h-36zM1394 38q0 2 3 3l25 1q9 -1 9 -13q7 -7 18 -9q8 2 14 9q0 11 -8 17q-8 4 -19 7l-19 7q-6 5 -13 12q-4 10 -5 22q1 8 6 18q5 7 14 12q7 5 17 6h18h8q8 -2 18 -7q6 -6 11 -15q3 -7 5 -16h-6l-24 -3q-6 5 -11 14l-7 3l-12 -3l-5 -9q3 -3 7 -6l40 -12 q6 -5 13 -12q5 -7 8 -18l1 -12l-3 -6v-4q-3 -8 -10 -16q-6 -5 -15 -8q-10 -5 -22 -5h-14l-7 2l-3 2q-9 1 -17 7q-5 7 -10 15zM1520 -3v132h37v-132h-37zM1576 54v16l2 14l4 13l6 9l7 9l9 8l12 5l11 2h17l25 -6l8 -7q4 -4 7 -9l6 -10l5 -11l1 -15v-16l-4 -27l-5 -11l-8 -8 l-8 -7l-12 -4l-12 -4h-18l-13 4q-6 1 -12 4l-9 6l-7 9l-10 22zM1612 57l4 -14q0 -4 4 -9l8 -7l13 -1l12 5l5 10l2 13v14l-2 14q-1 6 -5 11l-7 5l-14 2q-6 -2 -11 -6q-3 -5 -5 -10l-4 -13v-14zM1716 209v655l1 3l9 28l17 21q5 5 7 13l11 27q2 8 5 15l27 50l10 8l14 24l9 11 l11 7l14 25l8 10l22 35l10 11l12 7q6 3 11 7l8 11l10 11l37 19l15 6l40 35l17 42q2 7 3 15v38l-5 14l-7 13l-16 21l-12 7q-8 2 -16 3h-19l-15 -1q-9 -1 -17 -4l-14 -5l-21 -16l-28 -30l-23 -34l-42 -35l-49 -66l-21 -35l-18 -21l-5 -10v445l14 -6l10 -9l69 -45l2 -209l9 7 l14 22q5 6 11 10q4 5 10 9l24 33l47 30l13 6l17 3h18l34 -7l13 -6l22 -15l9 -11l16 -22l6 -14q2 -6 3 -16v-57l-13 -43l-23 -35q-4 -5 -10 -9l-47 -30q-7 -2 -14 -5l-12 -6l-13 -6l-8 -11q-5 -5 -9 -11l-13 -6q-4 -5 -10 -10q-2 -5 -7 -11l-50 -66q-3 -5 -6 -11l-26 -32 q-3 -6 -5 -15v-703l-2 -2l-66 -50l-9 -9l-12 -7zM1718 -3v132h25q9 -1 14 -10q4 -7 9 -16l9 -15l10 -15l8 -15l2 18v53h34v-130l-24 -2q-8 2 -15 7l-9 16q-4 7 -8 16l-10 15q-3 7 -10 14l-2 -15v-53h-33z" />
<glyph unicode="'" horiz-adv-x="598" d="M7 1436l88 287q29 95 125 66q95 -29 66 -125l-88 -287q-29 -95 -125 -66q-95 29 -66 125z" />
<glyph unicode="(" horiz-adv-x="696" d="M0 905q0 247 44 505q50 290 95 388q44 97 136 59q92 -39 50 -160t-73 -276q-52 -256 -52 -516t52 -516q31 -155 73 -275q42 -121 -50 -159q-92 -39 -136 58q-45 97 -95 387q-44 258 -44 505z" />
<glyph unicode=")" horiz-adv-x="699" d="M13 114q42 120 73 275q52 256 52 516t-52 516q-31 155 -73 276q-41 121 50 160q92 38 137 -59q44 -98 94 -388q44 -258 44 -505t-44 -505q-50 -290 -94 -387q-45 -97 -137 -58q-91 38 -50 159z" />
<glyph unicode="*" horiz-adv-x="1203" d="M6 1364q29 88 133 54l214 -70v235q0 100 92 100q93 0 93 -100v-235l231 77q85 27 114 -60q29 -88 -56 -116l-232 -77l137 -190q61 -81 -14 -135t-135 27l-137 190l-139 -190q-57 -82 -132 -27q-75 54 -18 136l139 190l-214 69q-104 33 -76 122z" />
<glyph unicode="+" horiz-adv-x="1302" d="M0 1000q0 100 100 100h300v300q0 100 100 100t100 -100v-300h300q100 0 100 -100t-100 -100h-300v-300q0 -100 -100 -100t-100 100v300h-300q-100 0 -100 100z" />
<glyph unicode="," horiz-adv-x="700" d="M9 -66l88 286q29 96 125 66q96 -29 66 -124l-88 -287q-29 -95 -125 -66q-95 29 -66 125z" />
<glyph unicode="-" horiz-adv-x="1302" d="M0 1000q0 100 100 100h800q100 0 100 -100t-100 -100h-800q-100 0 -100 100z" />
<glyph unicode="." horiz-adv-x="499" d="M0 115q0 30 15.5 57.5t43 42.5t56.5 15t56.5 -15t43 -42.5t15.5 -57.5t-15 -57.5t-42.5 -42.5t-57.5 -15t-57.5 15t-42.5 42.5t-15 57.5z" />
<glyph unicode="/" horiz-adv-x="1300" d="M15 149l804 1592q44 89 134 45q89 -45 44 -135l-803 -1591q-45 -89 -134 -45q-89 45 -45 134z" />
<glyph unicode="0" horiz-adv-x="1197" d="M0 500v800q0 500 450 500t450 -500v-800q0 -500 -450 -500t-450 500zM200 500q0 -300 250 -300t250 300v800q0 300 -250 300t-250 -300v-800z" />
<glyph unicode="1" horiz-adv-x="869" d="M29 1319q-68 76 24 159l368 324q42 31 96 5t54 -107v-1600q0 -100 -100 -100t-100 100v1380l-183 -160q-90 -78 -159 -1z" />
<glyph unicode="2" horiz-adv-x="1200" d="M13 52q-34 53 21 130q391 613 626 1021q65 108 57.5 193.5t-72 142t-170.5 61.5q-122 -1 -178 -82t-53 -145q-15 -97 -107 -97q-106 0 -104 106q27 173 146.5 296.5t295.5 123.5q177 0 309 -116.5t132 -329.5q0 -172 -95 -296l-505 -860h500q100 0 100 -100t-100 -100 h-682q-87 -1 -121 52z" />
<glyph unicode="3" horiz-adv-x="1199" d="M0 100q0 100 100 100h300q300 0 300 300v131q0 114 -82.5 191.5t-196.5 77.5h-141q-100 0 -100 100t100 100h141q116 0 197.5 68.5t81.5 183.5q0 114 -82.5 181t-196.5 67h-321q-100 0 -100 100t100 100h351q188 0 318.5 -130t130.5 -318q0 -224 -179 -361 q179 -136 179 -360v-131q0 -500 -500 -500h-300q-100 0 -100 100z" />
<glyph unicode="4" horiz-adv-x="1199" d="M9 553l338 1158q31 106 133 76q99 -40 67 -148l-303 -1039h321v200q0 101 100 101t100 -101v-200h200q100 0 100 -100t-100 -100h-200v-300q0 -100 -100 -100t-100 100v300h-428q-172 0 -128 153z" />
<glyph unicode="5" horiz-adv-x="1209" d="M0 100q0 100 100 100h300q300 0 300 300v130q0 270 -300 270h-250q-150 0 -150 150v750h700q100 0 100 -100t-100 -100h-520v-500h220q500 0 500 -470v-130q0 -500 -500 -500h-300q-100 0 -100 100z" />
<glyph unicode="6" horiz-adv-x="1195" d="M0 450v542q0 326 202 523.5t364 249.5q109 35 136 -53t-67 -124q-87 -36 -184 -101.5t-173.5 -187t-77.5 -199.5h251q193 0 321 -138t128 -331v-181q0 -189 -129.5 -319.5t-320.5 -130.5q-189 0 -319.5 129t-130.5 321zM200 450q0 -115 68 -182.5t182 -67.5q116 0 183 68 t67 182v181q0 115 -67 192t-182 77h-251v-450z" />
<glyph unicode="7" horiz-adv-x="1194" d="M0 1600v50q0 150 150 150h639q60 0 97 -31.5t14 -118.5l-354 -1569q-23 -103 -121 -76q-98 28 -77 130l342 1465h-490q0 -100 -100 -100t-100 100z" />
<glyph unicode="8" horiz-adv-x="1199" d="M0 451v180q0 224 180 360q-180 137 -180 361q0 189 130.5 318.5t320.5 129.5q189 0 319 -129.5t130 -318.5q0 -224 -179 -361q129 -119 154 -215t25 -325q0 -190 -130 -320.5t-319 -130.5q-190 0 -320.5 130.5t-130.5 320.5zM200 451q0 -115 68 -183t183 -68 q116 0 182.5 68t66.5 183v180q0 114 -67.5 191.5t-181.5 77.5q-115 0 -183 -77.5t-68 -191.5v-180zM200 1352q0 -115 68 -183.5t183 -68.5q116 0 182.5 68.5t66.5 183.5q0 114 -67.5 181t-181.5 67q-115 0 -183 -67t-68 -181z" />
<glyph unicode="9" horiz-adv-x="1195" d="M0 1144v181q0 189 129.5 319.5t320.5 130.5q189 0 319.5 -129t130.5 -321v-542q0 -326 -202 -523.5t-364 -249.5q-109 -34 -136 53q-27 88 67 124q87 36 184 101.5t173.5 187t77.5 199.5h-251q-193 0 -321 138t-128 331zM200 1144q0 -115 67 -192t182 -77h251v450 q0 115 -68 182.5t-182 67.5q-116 0 -183 -68t-67 -182v-181z" />
<glyph unicode=":" horiz-adv-x="499" d="M0 115q0 30 15.5 57.5t43 42.5t56.5 15t56.5 -15t43 -42.5t15.5 -57.5t-15 -57.5t-42.5 -42.5t-57.5 -15t-57.5 15t-42.5 42.5t-15 57.5zM0 1215q0 30 15.5 57.5t43 42.5t56.5 15t56.5 -15t43 -42.5t15.5 -57.5t-15 -57.5t-42.5 -42.5t-57.5 -15t-57.5 15t-42.5 42.5 t-15 57.5z" />
<glyph unicode=";" horiz-adv-x="597" d="M9 -66l88 286q29 96 125 66q96 -29 66 -124l-88 -287q-29 -95 -125 -66q-95 29 -66 125zM80 1215q0 30 15.5 57.5t43 42.5t56.5 15t56.5 -15t43 -42.5t15.5 -57.5t-15 -57.5t-42.5 -42.5t-57.5 -15t-57.5 15t-42.5 42.5t-15 57.5z" />
<glyph unicode="&#x3c;" horiz-adv-x="1204" d="M0 921q0 104 109 150l517 201q122 47 153 -61q30 -109 -77 -149l-369 -136l375 -135q116 -40 78 -153q-38 -114 -154 -65l-522 201q-110 43 -110 147z" />
<glyph unicode="=" horiz-adv-x="1300" d="M0 800q0 100 100 100h800q100 0 100 -100t-100 -100h-800q-100 0 -100 100zM0 1200q0 100 100 100h800q100 0 100 -100t-100 -100h-800q-100 0 -100 100z" />
<glyph unicode="&#x3e;" horiz-adv-x="1100" d="M9 638q-37 113 79 153l374 135l-369 136q-106 40 -76 149q30 108 152 61l517 -201q109 -46 109 -150t-110 -147l-522 -201q-116 -49 -154 65z" />
<glyph unicode="?" horiz-adv-x="1199" d="M39 1601q-39 92 59 139q194 81 434 60q142 0 255 -113.5t113 -285.5q0 -169 -115 -285l-201 -245q-32 -30 -34 -73v-298q0 -100 -100 -100t-100 100v298q0 126 87 219l210 244q53 55 53 140t-56.5 142t-111.5 57q-127 10 -201.5 -8.5t-163.5 -50.5t-128 60zM335 115 q0 30 15.5 57.5t43 42.5t56.5 15t56.5 -15t43 -42.5t15.5 -57.5t-15 -57.5t-42.5 -42.5t-57.5 -15t-57.5 15t-42.5 42.5t-15 57.5z" />
<glyph unicode="@" horiz-adv-x="2193" d="M0 450v700q0 370 240.5 610t589.5 240q351 0 590.5 -239t239.5 -590v-645q0 -152 -86 -264t-234 -112q-176 0 -233 145q-84 -145 -277 -145q-158 0 -269 109t-111 261v550q0 167 111 273.5t269 106.5h220q150 0 150 -150v-774q0 -176 137 -176q123 0 123 176v645 q0 271 -179.5 450t-450.5 179t-450.5 -179t-179.5 -471v-700q0 -284 181 -467t345 -183q104 0 104 -100t-98 -103q-250 3 -491 246t-241 607zM650 520q0 -70 52.5 -120t127.5 -50q77 0 123.5 49.5t46.5 126.5v724h-170q-77 0 -128.5 -47t-51.5 -133v-550z" />
<glyph unicode="A" horiz-adv-x="1395" d="M6 131l456 1569q35 100 129 100q96 0 129 -100l417 -1572q5 -20 5 -37q0 -66 -77 -86q-20 -5 -37 -5q-65 0 -85 76l-99 374h-537l-109 -375q-22 -74 -85 -74q-18 0 -39 6q-74 22 -74 85q0 18 6 39zM365 650h425l-202 765z" />
<glyph unicode="B" horiz-adv-x="1400" d="M0 150v1500q0 150 150 150h391q192 0 325.5 -128t133.5 -320q0 -216 -176 -351q276 -153 276 -460q0 -227 -166.5 -384t-392.5 -157h-391q-150 0 -150 150zM200 200h341q144 0 251.5 93t107.5 248q0 154 -107.5 256.5t-251.5 102.5h-341v-700zM200 1100h341 q104 0 181.5 68.5t77.5 183.5q0 114 -77.5 181t-181.5 67h-341v-500z" />
<glyph unicode="C" horiz-adv-x="1197" d="M0 500v800q0 500 500 500h300q100 0 100 -100t-100 -100h-300q-300 0 -300 -300v-800q0 -300 300 -300h300q100 0 100 -100t-100 -100h-300q-500 0 -500 500z" />
<glyph unicode="D" horiz-adv-x="1299" d="M0 150v1500q0 150 150 150h350q500 0 500 -500v-800q0 -500 -500 -500h-350q-150 0 -150 150zM200 200h300q300 0 300 300v800q0 300 -300 300h-300v-1400z" />
<glyph unicode="E" horiz-adv-x="1197" d="M0 150v1500q0 150 150 150h650q100 0 100 -100t-100 -100h-600v-500h300q100 0 100 -100t-100 -100h-300v-700h600q100 0 100 -100t-100 -100h-650q-150 0 -150 150z" />
<glyph unicode="F" horiz-adv-x="1197" d="M0 100v1550q0 150 150 150h650q100 0 100 -100t-100 -100h-600v-500h300q100 0 100 -100t-100 -100h-300v-800q0 -100 -100 -100t-100 100z" />
<glyph unicode="G" horiz-adv-x="1299" d="M0 500v800q0 500 500 500h400q100 0 100 -100t-100 -100h-400q-300 0 -300 -300v-800q0 -300 300 -300h300v700h-100q-100 0 -100 100t100 100h150q150 0 150 -150v-800q0 -150 -150 -150h-350q-500 0 -500 500z" />
<glyph unicode="H" horiz-adv-x="1299" d="M0 100v1600q0 100 100 100t100 -100v-600h600v600q0 100 100 100t100 -100v-1600q0 -100 -100 -100t-100 100v800h-600v-800q0 -100 -100 -100t-100 100z" />
<glyph unicode="I" horiz-adv-x="501" d="M0 100v1600q0 100 100 100t100 -100v-1600q0 -100 -100 -100t-100 100z" />
<glyph unicode="J" horiz-adv-x="1197" d="M0 100q0 100 100 100h300q300 0 300 300v1200q0 100 100 100t100 -100v-1200q0 -500 -500 -500h-300q-100 0 -100 100z" />
<glyph unicode="K" horiz-adv-x="1400" d="M0 100v1600q0 100 100 100t100 -100v-700l649 742q50 57 101 57q29 0 58 -18q47 -33 47 -74q0 -35 -35 -76l-457 -548l508 -924q22 -38 22 -68q0 -48 -56 -76q-29 -14 -55 -14q-54 0 -92 65l-481 873l-209 -239v-600q0 -100 -100 -100t-100 100z" />
<glyph unicode="L" horiz-adv-x="1197" d="M0 0v1700q0 100 100 100t100 -100v-1500h600q100 0 100 -100t-100 -100h-800z" />
<glyph unicode="M" horiz-adv-x="1401" d="M0 100v1600q0 100 75 100t123 -87l352 -663l354 663q46 87 121 87t75 -100v-1600q0 -100 -100 -100t-100 100v1199l-287 -531q-32 -60 -63.5 -60t-64.5 60l-285 531v-1199q0 -100 -100 -100t-100 100z" />
<glyph unicode="N" horiz-adv-x="1299" d="M0 100v1600q0 100 75 100t120 -95l605 -1200v1195q0 100 100 100t100 -100v-1600q0 -100 -75 -100t-127 98l-598 1146v-1144q0 -100 -100 -100t-100 100z" />
<glyph unicode="O" horiz-adv-x="1299" d="M0 500v800q0 500 500 500t500 -500v-800q0 -500 -500 -500t-500 500zM200 500q0 -300 300 -300t300 300v800q0 300 -300 300t-300 -300v-800z" />
<glyph unicode="P" horiz-adv-x="1195" d="M0 100v1550q0 150 150 150h300q450 0 450 -550t-450 -550h-250v-600q0 -100 -100 -100t-100 100zM200 900h250q250 0 250 350t-250 350h-250v-700z" />
<glyph unicode="Q" horiz-adv-x="1299" d="M0 500v800q0 500 500 500t500 -500v-800q-3 -85 -9.5 -147t-48.5 -135l63 -70q27 -31 27 -61q0 -40 -46 -79q-43 -36 -81 -36q-35 0 -67 32l-65 66q-40 -36 -110 -54q-63 -16 -145 -16h-18q-500 0 -500 500zM200 500q0 -300 300 -300h13q79 0 120 23l-63 71 q-28 32 -28 64q0 39 43 79q41 38 78 38q32 0 60 -30l60 -64q18 2 18 80q0 18 -1 39v800q0 300 -300 300t-300 -300v-800z" />
<glyph unicode="R" horiz-adv-x="1195" d="M0 100v1550q0 150 150 150h300q450 0 450 -550q0 -426 -246 -509l288 -583q17 -34 17 -61q0 -52 -60 -81q-31 -15 -57 -15q-52 0 -85 61l-317 638h-240v-600q0 -100 -100 -100t-100 100zM200 900h250q250 0 250 350t-250 350h-250v-700z" />
<glyph unicode="S" horiz-adv-x="1298" d="M3 1357q0 189 136 320.5t317 131.5q135 0 243 -27q89 -24 151 -51q76 -36 76 -103q0 -24 -10 -53q-26 -71 -81 -71q-28 0 -62 18q-182 76 -317 76q-125 -7 -179.5 -66.5t-61.5 -174.5v-9q0 -128 132 -219l440 -274q238 -129 238 -402v-11q0 -197 -121.5 -319.5 t-312.5 -122.5q-374 17 -536 200q-49 44 -49 92q0 35 25 72q36 43 73 43q32 0 65 -31q82 -78 210 -137q107 -38 212 -38q111 0 171 68t60 173q1 10 1 19q0 112 -111 183l-454 291q-255 146 -255 422z" />
<glyph unicode="T" horiz-adv-x="1299" d="M0 1700q0 100 100 100h800q100 0 100 -100t-100 -100h-300v-1500q0 -100 -100 -100t-100 100v1500h-300q-100 0 -100 100z" />
<glyph unicode="U" horiz-adv-x="1299" d="M0 500v1200q0 100 100 100t100 -100v-1200q0 -300 300 -300t300 300v1200q0 100 100 100t100 -100v-1200q0 -500 -500 -500t-500 500z" />
<glyph unicode="V" horiz-adv-x="1380" d="M5 1665q-5 19 -5 35q0 62 71 93q21 6 39 6q61 0 81 -72l354 -1327l351 1316q22 83 86 83q17 0 36 -6q73 -20 73 -84q0 -20 -7 -44l-436 -1565q-28 -100 -103 -100t-104 100z" />
<glyph unicode="W" horiz-adv-x="1699" d="M3 1685q-3 14 -3 27q0 69 84 88q104 0 116 -77l222 -1223l195 698q33 112 97 112t98 -117l194 -693l217 1210q17 87 87 87q14 0 31 -4q84 -17 84 -90q0 -13 -3 -27l-285 -1573q-22 -103 -100 -103q-77 0 -107 99l-216 747l-219 -750q-27 -96 -105 -96t-94 96z" />
<glyph unicode="X" horiz-adv-x="1380" d="M28 1638q-17 36 -17 65q0 53 56 84q26 14 49 14q54 0 93 -79l294 -627l293 628q38 79 92 79q23 0 48 -14q56 -29 56 -84q0 -31 -18 -69l-342 -734l342 -727q19 -41 19 -74q0 -55 -55 -85q-28 -15 -52 -15q-51 0 -83 67l-300 642l-299 -639q-34 -70 -84 -70q-24 0 -51 16 q-56 33 -56 88q0 29 16 64l345 733z" />
<glyph unicode="Y" horiz-adv-x="1272" d="M21 1631q-21 39 -21 70q0 49 51 80q29 17 53 17q47 0 79 -65l301 -608l295 605q36 70 87 70q23 0 50 -15q53 -29 53 -82q0 -32 -20 -74l-365 -729v-800q0 -100 -100 -100t-100 100v800z" />
<glyph unicode="Z" horiz-adv-x="1200" d="M0 1700q0 100 100 100h650q124 -3 146 -89q6 -24 7 -50q0 -66 -40 -141l-623 -1320h560q100 0 100 -100t-100 -100h-650q-125 0 -146 92q-5 23 -5 47q0 72 46 156l615 1305h-560q-100 0 -100 100z" />
<glyph unicode="[" horiz-adv-x="697" d="M0 -50v1900q0 150 150 150h150q100 0 100 -100t-100 -100h-100v-1800h100q100 0 100 -100t-100 -100h-150q-150 0 -150 150z" />
<glyph unicode="\" horiz-adv-x="1300" d="M15 1651q-44 90 45 135q89 44 134 -45l803 -1592q45 -89 -44 -134q-90 -44 -134 45z" />
<glyph unicode="]" horiz-adv-x="697" d="M0 -100q0 100 100 100h100v1800h-100q-100 0 -100 100t100 100h150q150 0 150 -150v-1900q0 -150 -150 -150h-150q-100 0 -100 100z" />
<glyph unicode="^" horiz-adv-x="598" d="M7 1436l88 287q29 95 125 66q95 -29 66 -125l-88 -287q-29 -95 -125 -66q-95 29 -66 125z" />
<glyph unicode="_" horiz-adv-x="1097" d="M0 -100q0 100 100 100h900q100 0 100 -100t-100 -100h-900q-100 0 -100 100z" />
<glyph unicode="`" horiz-adv-x="598" d="M7 1664q-29 96 66 125q96 29 125 -66l88 -287q29 -96 -66 -125q-96 -29 -125 66z" />
<glyph unicode="a" horiz-adv-x="1397" d="M0 400v500q0 400 400 400h350q150 0 150 -150v-778q0 -158 200 -172q103 0 103 -102q0 -98 -103 -98q-227 0 -289 139q-69 -139 -311 -139h-100q-400 0 -400 400zM200 400q0 -200 200 -200h100q200 0 200 172v728h-300q-200 0 -200 -200v-500z" />
<glyph unicode="b" horiz-adv-x="1199" d="M0 150v1550q0 100 100 100t100 -100v-400h300q400 0 400 -400v-500q0 -400 -400 -400h-350q-150 0 -150 150zM200 200h300q200 0 222 200v500q-22 200 -222 200h-300v-900z" />
<glyph unicode="c" horiz-adv-x="1197" d="M0 500v300q0 500 500 500h300q100 0 100 -100t-100 -100h-300q-300 0 -300 -300v-300q0 -300 300 -300h300q100 0 100 -100t-100 -100h-300q-500 0 -500 500z" />
<glyph unicode="d" horiz-adv-x="1199" d="M0 400v500q0 400 400 400h300v400q0 100 100 100t100 -100v-1550q0 -150 -150 -150h-350q-400 0 -400 400zM178 400q22 -200 222 -200h300v900h-300q-200 0 -222 -200v-500z" />
<glyph unicode="e" horiz-adv-x="1199" d="M0 400v500q0 400 400 400h100q400 0 400 -400v-200q0 -150 -150 -150h-550v-150q0 -200 200 -200h400q100 0 100 -100t-100 -100h-400q-400 0 -400 400zM200 750h500v150q0 200 -200 200h-100q-200 0 -200 -200v-150z" />
<glyph unicode="f" horiz-adv-x="1100" d="M0 1200q0 100 100 100h100v100q0 400 400 400h100q100 0 100 -100t-100 -100h-100q-200 0 -200 -200v-100h300q100 0 100 -100t-100 -100h-300v-1000q0 -100 -100 -100t-100 100v1000h-100q-100 0 -100 100z" />
<glyph unicode="g" horiz-adv-x="1199" d="M0 -400q0 100 100 100h400q200 0 200 200v100h-300q-400 0 -400 400v500q0 400 400 400h350q150 0 150 -150v-1250q0 -400 -400 -400h-400q-100 0 -100 100zM178 400q22 -200 222 -200h300v900h-300q-200 0 -222 -200v-500z" />
<glyph unicode="h" horiz-adv-x="1197" d="M0 100v1600q0 100 100 100t100 -100v-400h300q400 0 400 -400v-800q0 -100 -100 -100t-100 100v800q0 200 -200 200h-300v-1000q0 -100 -100 -100t-100 100z" />
<glyph unicode="i" horiz-adv-x="501" d="M0 1685q0 30 15.5 58t43 42.5t56.5 14.5t56.5 -14.5t43 -42.5t15.5 -58t-15 -57t-42.5 -42.5t-57.5 -15.5t-57.5 15.5t-42.5 42.5t-15 57zM15 100v1100q0 100 100 100t100 -100v-1100q0 -100 -100 -100t-100 100z" />
<glyph unicode="j" horiz-adv-x="600" d="M-300 -400q0 100 100 100h100q200 0 200 200v1300q0 100 100 100t100 -100v-1300q0 -400 -400 -400h-100q-100 0 -100 100zM85 1685q0 30 15.5 57.5t43 42.5t56.5 15t56.5 -15t43 -42.5t15.5 -57.5t-15 -57.5t-42.5 -42.5t-57.5 -15t-57.5 15t-42.5 42.5t-15 57.5z" />
<glyph unicode="k" horiz-adv-x="1199" d="M0 100v1600q0 100 100 100t100 -100v-900l503 453q38 34 71 34q36 0 67 -41q27 -36 27 -69q0 -39 -37 -75l-276 -254l316 -685q16 -36 16 -64q0 -57 -62 -86q-28 -13 -52 -13q-55 0 -87 69l-293 643l-193 -163v-449q0 -100 -100 -100t-100 100z" />
<glyph unicode="l" horiz-adv-x="898" d="M0 400v1300q0 100 100 100t100 -100v-1300q0 -200 200 -200h100q100 0 100 -100t-100 -100h-100q-400 0 -400 400z" />
<glyph unicode="m" horiz-adv-x="1501" d="M0 100v1050q0 150 150 150h650q400 0 400 -400v-800q0 -100 -100 -100t-100 100v800q0 200 -200 200h-100v-1000q0 -100 -100 -100t-100 100v1000h-300v-1000q0 -100 -100 -100t-100 100z" />
<glyph unicode="n" horiz-adv-x="1197" d="M0 100v1050q0 150 150 150h350q400 0 400 -400v-800q0 -100 -100 -100t-100 100v800q0 200 -200 200h-300v-1000q0 -100 -100 -100t-100 100z" />
<glyph unicode="o" horiz-adv-x="1199" d="M0 500v300q0 500 450 500t450 -500v-300q0 -500 -450 -500t-450 500zM200 500q0 -300 250 -300t250 300v300q0 300 -250 300t-250 -300v-300z" />
<glyph unicode="p" horiz-adv-x="1199" d="M0 -400v1550q0 150 150 150h350q400 0 400 -400v-500q0 -400 -400 -400h-300v-400q0 -100 -100 -100t-100 100zM200 200h300q200 0 222 200v500q-22 200 -222 200h-300v-900z" />
<glyph unicode="q" horiz-adv-x="1199" d="M0 400v500q0 400 400 400h350q150 0 150 -150v-1550q0 -100 -100 -100t-100 100v400h-300q-400 0 -400 400zM178 400q22 -200 222 -200h300v900h-300q-200 0 -222 -200v-500z" />
<glyph unicode="r" horiz-adv-x="1099" d="M0 100v1050q0 150 150 150h250q400 0 400 -400q0 -100 -100 -100t-100 100q0 200 -200 200h-200v-1000q0 -100 -100 -100t-100 100z" />
<glyph unicode="s" horiz-adv-x="1104" d="M6 994v7q0 139 116 224q103 75 257 75h6q168 0 320 -102q45 -34 45 -75q0 -25 -17 -54q-27 -47 -65 -47q-24 0 -53 19q-104 63 -236 63q-18 1 -34 1q-144 0 -151 -111q-1 -10 -1 -21q0 -70 66 -121l414 -232q188 -90 188 -295q0 -170 -142 -255q-102 -70 -264 -70h-4 q-205 0 -379 92q-56 37 -56 89q0 24 12 51q25 56 68 56q22 0 49 -14q178 -73 311 -75h6q183 0 211 126q0 71 -71 127l-430 230q-166 88 -166 304v8z" />
<glyph unicode="t" horiz-adv-x="1100" d="M0 1200q0 100 100 100h100v400q0 100 100 100t100 -100v-400h300q100 0 100 -100t-100 -100h-300v-1000q0 -100 -100 -100t-100 100v1000h-100q-100 0 -100 100z" />
<glyph unicode="u" horiz-adv-x="1197" d="M0 400v800q0 100 100 100t100 -100v-800q0 -200 200 -200h300v1000q0 100 100 100t100 -100v-1050q0 -150 -150 -150h-350q-400 0 -400 400z" />
<glyph unicode="v" horiz-adv-x="1200" d="M7 1161q-7 23 -7 42q0 59 66 87q25 10 45 10q52 0 76 -68l274 -832l230 822q23 76 80 76q19 0 42 -8q70 -26 70 -91q0 -20 -7 -43l-311 -1055q-29 -101 -104 -101t-107 100z" />
<glyph unicode="w" horiz-adv-x="1498" d="M3 1176q-3 13 -3 25q0 61 76 89q24 9 44 9q54 0 72 -67l193 -792l123 411q24 78 90 78q65 0 90 -81l119 -408l203 793q19 67 74 67q18 0 40 -7q74 -24 74 -86q0 -12 -3 -26l-272 -1082q-26 -99 -95 -99t-100 95l-132 425l-135 -422q-31 -98 -98 -98q-68 0 -93 96z" />
<glyph unicode="x" horiz-adv-x="1200" d="M21 161l281 490l-276 479q-22 40 -22 72q0 49 51 81q29 18 55 18q52 0 94 -68l227 -388l229 386q42 69 95 69q25 0 53 -15q54 -30 54 -80q0 -31 -21 -70l-281 -484l276 -483q22 -38 22 -69q0 -48 -52 -81q-29 -18 -56 -18q-50 0 -90 63l-229 396l-234 -394 q-39 -64 -90 -64q-26 0 -54 16q-52 30 -52 78q0 30 20 66z" />
<glyph unicode="y" horiz-adv-x="1198" d="M0 -400q0 100 100 100q86 0 136 148l87 290l-288 1028q-6 21 -6 38q0 63 72 89q22 8 40 8q59 0 81 -80l208 -790l244 788q24 78 86 78q17 0 37 -6q67 -21 67 -83q0 -22 -9 -50l-451 -1394q-88 -264 -304 -264q-100 0 -100 100z" />
<glyph unicode="z" horiz-adv-x="1198" d="M8 67q-8 22 -8 45q0 44 31 88l560 900h-460q-100 0 -100 100t100 100h593q82 0 116 -65q15 -28 15 -58q0 -38 -24 -77l-560 -900h529q100 0 100 -100t-100 -100h-682q-87 0 -110 67z" />
<glyph unicode="{" horiz-adv-x="697" d="M0 -50v1900q0 150 150 150h150q100 0 100 -100t-100 -100h-100v-1800h100q100 0 100 -100t-100 -100h-150q-150 0 -150 150z" />
<glyph unicode="|" horiz-adv-x="498" d="M0 -100v2000q0 100 100 100t100 -100v-2000q0 -100 -100 -100t-100 100z" />
<glyph unicode="}" horiz-adv-x="697" d="M0 -100q0 100 100 100h100v1800h-100q-100 0 -100 100t100 100h150q150 0 150 -150v-1900q0 -150 -150 -150h-150q-100 0 -100 100z" />
<glyph unicode="~" horiz-adv-x="2602" d="M0 209v1380h617q7 -1 16 -4l109 -83l10 -10l12 -8l10 -8l284 -217l2 18l-2 312h629l2 -1v-477q-1 0 -2 -2l-8 -12l-14 -26l-16 -21l-8 -13l-3 -16q-3 -6 -5 -13l-11 -29l-16 -23l-8 -8q-4 -6 -7 -13l-24 -35l-4 -16l-8 -11q-4 -5 -8 -11l-10 -28l-10 -10q-3 -7 -11 -8 q-6 0 -14 5l-10 9l-8 11l-4 17l-10 85q-1 8 -3 16l-6 70l-3 16l-8 13q-6 4 -12 6l-35 4l-35 -4l-15 -3l-22 -16l-3 -18v-37l3 -18q0 -8 2 -18l3 -15l53 -159q4 -6 5 -14l6 -34l9 -28q0 -8 3 -16q4 -6 7 -14q2 -7 3 -16l3 -16l5 -14l3 -16l7 -12q3 -6 8 -12l11 -27 q3 -6 7 -13q1 -6 6 -12l20 -18l16 -5q6 -3 16 -3h19q6 4 13 7l11 9q5 3 10 8l7 12q5 5 8 12l11 26l1 16v42q0 7 3 17l9 30q0 7 4 15l6 12l4 15l8 12l27 50q4 5 9 11l8 11q2 3 7 7v-613h-627q1 6 1 12l-185 257l-8 12l-233 323v-604h-637zM3 -3v132h25q10 -1 13 -10 q5 -7 10 -16l10 -15q3 -6 8 -15l9 -15l3 18v53h34v-130l-24 -2q-10 2 -16 7l-9 16q-4 7 -9 16l-9 15q-3 7 -9 14l-3 -15v-53h-33zM134 54v16l1 14l5 13l5 9l7 9l10 8l10 5l13 2h17l24 -6l9 -7q4 -4 8 -9l6 -10l3 -11l3 -15v-16l-5 -27l-6 -11l-7 -8l-10 -7l-9 -4l-15 -4h-16 l-14 4q-6 1 -11 4l-10 6l-7 9l-10 22zM171 57l1 -14q2 -4 5 -9l9 -7l13 -1l10 5l6 10l4 13v14l-3 14q-2 6 -5 11l-9 5l-13 2q-5 -2 -11 -6q-2 -5 -5 -10l-2 -13v-14zM257 129h34l13 -70l3 5l12 54q2 6 6 11l32 -1l15 -66l4 4l11 56q1 7 8 7h27l-25 -129q-7 -1 -14 -3h-16 q-6 2 -9 7l-16 66q-2 5 -2 7l-21 -77l-15 -3h-15q-6 3 -7 9zM422 -3l42 132h35q7 -1 9 -10l38 -118q-4 -3 -11 -4h-18q-7 2 -8 7l-5 14h-34q-8 -2 -9 -9l-5 -12h-34zM472 51q7 -3 14 -4h11l-14 47zM561 -3v132h36v-48l27 34q5 8 13 14h45l-3 -4l-11 -11q-4 -8 -12 -14 l-15 -23l42 -80h-37q-9 3 -12 12l-8 18q-3 7 -7 16l-3 5l-19 -21v-30h-36zM663 226v482l91 -114q2 -6 5 -13v-299q-3 -5 -8 -10l-86 -62zM674 1573l169 -24l173 -137q5 -5 10 -11l5 -92l-201 148l-10 10zM742 98v31h106q3 -5 4 -11v-16q-4 -5 -11 -5h-24q-1 -1 -2 -3v-97 h-24q-6 1 -12 3v90q-1 6 -9 7h-14q-6 0 -14 1zM779 884l1 -2l1 -14l5 -10l6 -9l6 -8l22 -9q5 -2 12 -4l14 -1l13 2l11 4q5 2 8 7l10 20l6 9l16 15l13 17l15 16l40 23l7 6q4 2 7 7q4 4 9 8l19 10l44 32l11 6q3 2 8 7l9 6h24l2 -4l9 -37l5 -147l3 -12q1 -6 3 -12l-7 -132 q0 -6 -2 -12l2 -30l-5 -24l-5 -10l-2 -13l4 -42l7 -22l2 -14l9 -22q0 -6 2 -13v-15l7 -68l4 -11l8 -9l10 -5l27 -3l11 -3l14 -3h13l25 6l9 6q3 5 10 7q4 3 7 7l7 39l4 12l1 13l-21 99q-3 5 -4 13l-2 14l-2 9l2 10l-2 5l-1 29l5 40v182l-4 26l-6 192l5 40l6 9l9 7l23 8l10 5 l8 7l21 9q5 1 11 5l10 6q3 3 8 6l29 18l11 2l9 7l9 5l13 4l9 5l22 25l5 10l3 11l3 13l-4 12l-7 9l-6 8l-6 8l-10 6l-12 3h-30l-30 -17l-8 -7q-4 -1 -9 -5l-10 -5l-15 -17l-17 -12l-10 -5l-9 -6l-13 -4l-28 -16l-14 -1l-21 -10l-13 -3q-7 1 -12 3l-36 10l-15 1q-6 -1 -13 -3 l-8 -6l-11 -5q-5 -1 -8 -6l-9 -7l-6 -25v-3v-8q0 -6 3 -12l3 -4l-4 -21l-5 -11l-27 -19l-11 -5q-4 -2 -8 -6q-4 -3 -9 -6l-24 -8l-28 -16l-11 -6q-4 -2 -9 -6l-9 -6l-30 -15l-15 -15l-20 -11l-10 -5l-15 -15l-48 -14l-10 -5l-14 -14l-8 -10l-5 -9l-5 -25zM867 0v129h97v-29 h-60v-18h55l1 -28h-55l-1 -3v-22l10 -1h44l8 -1v-30h-96zM985 -3v132h36v-100h57v-32h-93zM1093 0v129h96v-29h-60v-18h55l1 -28h-55l-1 -3v-22l10 -1h44l9 -1v-30h-96q-2 1 -3 3zM1199 129h38l2 -5l23 -87l5 10l19 70q0 8 10 12h30l-27 -78q-1 -8 -5 -17l-11 -37h-40z M1340 -3v132h36v-132h-36zM1394 38q0 2 3 3l25 1q9 -1 9 -13q7 -7 18 -9q8 2 14 9q0 11 -8 17q-8 4 -19 7l-19 7q-6 5 -13 12q-4 10 -5 22q1 8 6 18q5 7 14 12q7 5 17 6h18h8q8 -2 18 -7q6 -6 11 -15q3 -7 5 -16h-6l-24 -3q-6 5 -11 14l-7 3l-12 -3l-5 -9q3 -3 7 -6l40 -12 q6 -5 13 -12q5 -7 8 -18l1 -12l-3 -6v-4q-3 -8 -10 -16q-6 -5 -15 -8q-10 -5 -22 -5h-14l-7 2l-3 2q-9 1 -17 7q-5 7 -10 15zM1520 -3v132h37v-132h-37zM1576 54v16l2 14l4 13l6 9l7 9l9 8l12 5l11 2h17l25 -6l8 -7q4 -4 7 -9l6 -10l5 -11l1 -15v-16l-4 -27l-5 -11l-8 -8 l-8 -7l-12 -4l-12 -4h-18l-13 4q-6 1 -12 4l-9 6l-7 9l-10 22zM1612 57l4 -14q0 -4 4 -9l8 -7l13 -1l12 5l5 10l2 13v14l-2 14q-1 6 -5 11l-7 5l-14 2q-6 -2 -11 -6q-3 -5 -5 -10l-4 -13v-14zM1716 209v655l1 3l9 28l17 21q5 5 7 13l11 27q2 8 5 15l27 50l10 8l14 24l9 11 l11 7l14 25l8 10l22 35l10 11l12 7q6 3 11 7l8 11l10 11l37 19l15 6l40 35l17 42q2 7 3 15v38l-5 14l-7 13l-16 21l-12 7q-8 2 -16 3h-19l-15 -1q-9 -1 -17 -4l-14 -5l-21 -16l-28 -30l-23 -34l-42 -35l-49 -66l-21 -35l-18 -21l-5 -10v445l14 -6l10 -9l69 -45l2 -209l9 7 l14 22q5 6 11 10q4 5 10 9l24 33l47 30l13 6l17 3h18l34 -7l13 -6l22 -15l9 -11l16 -22l6 -14q2 -6 3 -16v-57l-13 -43l-23 -35q-4 -5 -10 -9l-47 -30q-7 -2 -14 -5l-12 -6l-13 -6l-8 -11q-5 -5 -9 -11l-13 -6q-4 -5 -10 -10q-2 -5 -7 -11l-50 -66q-3 -5 -6 -11l-26 -32 q-3 -6 -5 -15v-703l-2 -2l-66 -50l-9 -9l-12 -7zM1718 -3v132h25q9 -1 14 -10q4 -7 9 -16l9 -15l10 -15l8 -15l2 18v53h34v-130l-24 -2q-8 2 -15 7l-9 16q-4 7 -8 16l-10 15q-3 7 -10 14l-2 -15v-53h-33z" />
<glyph unicode="&#xa1;" horiz-adv-x="682" />
<glyph unicode="&#xa2;" />
<glyph unicode="&#xa3;" />
<glyph unicode="&#xa5;" />
<glyph unicode="&#xa6;" horiz-adv-x="532" />
<glyph unicode="&#xa7;" />
<glyph unicode="&#xa8;" horiz-adv-x="682" />
<glyph unicode="&#xa9;" horiz-adv-x="1509" />
<glyph unicode="&#xaa;" horiz-adv-x="758" />
<glyph unicode="&#xab;" />
<glyph unicode="&#xac;" horiz-adv-x="1196" />
<glyph unicode="&#xad;" horiz-adv-x="1302" d="M0 1000q0 100 100 100h800q100 0 100 -100t-100 -100h-800q-100 0 -100 100z" />
<glyph unicode="&#xae;" horiz-adv-x="1509" />
<glyph unicode="&#xaf;" horiz-adv-x="1131" />
<glyph unicode="&#xb0;" horiz-adv-x="819" />
<glyph unicode="&#xb1;" horiz-adv-x="1124" />
<glyph unicode="&#xb2;" horiz-adv-x="682" />
<glyph unicode="&#xb3;" horiz-adv-x="682" />
<glyph unicode="&#xb4;" horiz-adv-x="682" />
<glyph unicode="&#xb5;" horiz-adv-x="1180" />
<glyph unicode="&#xb6;" horiz-adv-x="1100" />
<glyph unicode="&#xb7;" horiz-adv-x="682" />
<glyph unicode="&#xb8;" horiz-adv-x="682" />
<glyph unicode="&#xb9;" horiz-adv-x="682" />
<glyph unicode="&#xba;" horiz-adv-x="748" />
<glyph unicode="&#xbb;" />
<glyph unicode="&#xbc;" horiz-adv-x="1708" />
<glyph unicode="&#xbd;" horiz-adv-x="1708" />
<glyph unicode="&#xbe;" horiz-adv-x="1708" />
<glyph unicode="&#xbf;" horiz-adv-x="1251" />
<glyph unicode="&#xc0;" horiz-adv-x="1366" />
<glyph unicode="&#xc1;" horiz-adv-x="1366" />
<glyph unicode="&#xc2;" horiz-adv-x="1366" />
<glyph unicode="&#xc3;" horiz-adv-x="1366" />
<glyph unicode="&#xc4;" horiz-adv-x="1366" />
<glyph unicode="&#xc5;" horiz-adv-x="1366" />
<glyph unicode="&#xc6;" horiz-adv-x="2048" />
<glyph unicode="&#xc7;" horiz-adv-x="1479" />
<glyph unicode="&#xc8;" horiz-adv-x="1366" />
<glyph unicode="&#xc9;" horiz-adv-x="1366" />
<glyph unicode="&#xca;" horiz-adv-x="1366" />
<glyph unicode="&#xcb;" horiz-adv-x="1366" />
<glyph unicode="&#xcc;" horiz-adv-x="569" />
<glyph unicode="&#xcd;" horiz-adv-x="569" />
<glyph unicode="&#xce;" horiz-adv-x="569" />
<glyph unicode="&#xcf;" horiz-adv-x="569" />
<glyph unicode="&#xd0;" horiz-adv-x="1479" />
<glyph unicode="&#xd1;" horiz-adv-x="1479" />
<glyph unicode="&#xd2;" horiz-adv-x="1593" />
<glyph unicode="&#xd3;" horiz-adv-x="1299" d="M0 500v800q0 500 500 500t500 -500v-800q0 -500 -500 -500t-500 500zM200 500q0 -300 300 -300t300 300v800q0 300 -300 300t-300 -300v-800zM404 1972l50 155q29 95 125 66t66 -125l-50 -155q-29 -95 -125 -66q-95 29 -66 125z" />
<glyph unicode="&#xd4;" horiz-adv-x="1593" />
<glyph unicode="&#xd5;" horiz-adv-x="1593" />
<glyph unicode="&#xd6;" horiz-adv-x="1593" />
<glyph unicode="&#xd7;" horiz-adv-x="1196" />
<glyph unicode="&#xd8;" horiz-adv-x="1593" />
<glyph unicode="&#xd9;" horiz-adv-x="1479" />
<glyph unicode="&#xda;" horiz-adv-x="1479" />
<glyph unicode="&#xdb;" horiz-adv-x="1479" />
<glyph unicode="&#xdc;" horiz-adv-x="1479" />
<glyph unicode="&#xdd;" horiz-adv-x="1366" />
<glyph unicode="&#xde;" horiz-adv-x="1366" />
<glyph unicode="&#xdf;" horiz-adv-x="1251" />
<glyph unicode="&#xe0;" />
<glyph unicode="&#xe1;" />
<glyph unicode="&#xe2;" />
<glyph unicode="&#xe3;" />
<glyph unicode="&#xe4;" />
<glyph unicode="&#xe5;" />
<glyph unicode="&#xe6;" horiz-adv-x="1821" />
<glyph unicode="&#xe7;" horiz-adv-x="1024" />
<glyph unicode="&#xe8;" />
<glyph unicode="&#xe9;" />
<glyph unicode="&#xea;" />
<glyph unicode="&#xeb;" />
<glyph unicode="&#xec;" horiz-adv-x="569" />
<glyph unicode="&#xed;" horiz-adv-x="569" />
<glyph unicode="&#xee;" horiz-adv-x="569" />
<glyph unicode="&#xef;" horiz-adv-x="569" />
<glyph unicode="&#xf0;" />
<glyph unicode="&#xf1;" />
<glyph unicode="&#xf2;" />
<glyph unicode="&#xf3;" horiz-adv-x="1199" d="M0 500v300q0 500 450 500t450 -500v-300q0 -500 -450 -500t-450 500zM200 500q0 -300 250 -300t250 300v300q0 300 -250 300t-250 -300v-300zM404 1572l50 155q29 95 125 66t66 -125l-50 -155q-29 -95 -125 -66q-95 29 -66 125z" />
<glyph unicode="&#xf4;" />
<glyph unicode="&#xf5;" />
<glyph unicode="&#xf6;" />
<glyph unicode="&#xf7;" horiz-adv-x="1124" />
<glyph unicode="&#xf8;" horiz-adv-x="1251" />
<glyph unicode="&#xf9;" />
<glyph unicode="&#xfa;" />
<glyph unicode="&#xfb;" />
<glyph unicode="&#xfc;" />
<glyph unicode="&#xfd;" horiz-adv-x="1024" />
<glyph unicode="&#xfe;" />
<glyph unicode="&#xff;" horiz-adv-x="1024" />
<glyph unicode="&#x152;" horiz-adv-x="2048" />
<glyph unicode="&#x153;" horiz-adv-x="1933" />
<glyph unicode="&#x178;" horiz-adv-x="1366" />
<glyph unicode="&#x2c6;" horiz-adv-x="682" />
<glyph unicode="&#x2dc;" horiz-adv-x="682" />
<glyph unicode="&#x2000;" horiz-adv-x="1099" />
<glyph unicode="&#x2001;" horiz-adv-x="2199" />
<glyph unicode="&#x2002;" horiz-adv-x="1099" />
<glyph unicode="&#x2003;" horiz-adv-x="2199" />
<glyph unicode="&#x2004;" horiz-adv-x="733" />
<glyph unicode="&#x2005;" horiz-adv-x="549" />
<glyph unicode="&#x2006;" horiz-adv-x="366" />
<glyph unicode="&#x2007;" horiz-adv-x="366" />
<glyph unicode="&#x2008;" horiz-adv-x="274" />
<glyph unicode="&#x2009;" horiz-adv-x="439" />
<glyph unicode="&#x200a;" horiz-adv-x="122" />
<glyph unicode="&#x2010;" horiz-adv-x="1302" d="M0 1000q0 100 100 100h800q100 0 100 -100t-100 -100h-800q-100 0 -100 100z" />
<glyph unicode="&#x2011;" horiz-adv-x="1302" d="M0 1000q0 100 100 100h800q100 0 100 -100t-100 -100h-800q-100 0 -100 100z" />
<glyph unicode="&#x2012;" horiz-adv-x="1302" d="M0 1000q0 100 100 100h800q100 0 100 -100t-100 -100h-800q-100 0 -100 100z" />
<glyph unicode="&#x2013;" />
<glyph unicode="&#x2014;" horiz-adv-x="2048" />
<glyph unicode="&#x2018;" horiz-adv-x="455" />
<glyph unicode="&#x2019;" horiz-adv-x="455" />
<glyph unicode="&#x201a;" horiz-adv-x="455" />
<glyph unicode="&#x201c;" horiz-adv-x="682" />
<glyph unicode="&#x201d;" horiz-adv-x="682" />
<glyph unicode="&#x201e;" horiz-adv-x="682" />
<glyph unicode="&#x2022;" horiz-adv-x="717" />
<glyph unicode="&#x2026;" horiz-adv-x="2048" />
<glyph unicode="&#x202f;" horiz-adv-x="439" />
<glyph unicode="&#x2039;" horiz-adv-x="682" />
<glyph unicode="&#x203a;" horiz-adv-x="682" />
<glyph unicode="&#x205f;" horiz-adv-x="549" />
<glyph unicode="&#x20ac;" />
<glyph unicode="&#x2122;" horiz-adv-x="2048" />
<glyph unicode="&#x25fc;" horiz-adv-x="1300" d="M0 0v1300h1300v-1300h-1300z" />
<glyph unicode="&#xfb01;" horiz-adv-x="1024" />
<glyph unicode="&#xfb02;" horiz-adv-x="1024" />
</font>
</defs>
</svg>
